<svg xmlns="http://www.w3.org/2000/svg" viewBox="90 99 500 490" width="32" height="32">
  <path fill="#e53935" stroke="#000" stroke-width="12"
    d="M493 375c-15 69-52 130-132 154-19 6-43-10-69-10-27 0-50 14-71 6-71-27-95-81-112-150-13-53-12-115 25-142 63-46 114-8 161-8 68-1 92-55 169 13 43 38 40 86 29 137z" />
  <path fill="#204c04" stroke="#090" stroke-width="15"
    d="M256 150s10 56 27 80c6 1 12 4 17 0-16-29-20-83-20-83zm183-29c-69 0-148 20-129 105 125 87 221-93 222-93-3-3-45-12-93-12z" />
</svg>